<?xml version="1.0" standalone="no"?>
<!DOCTYPE svg PUBLIC "-//W3C//DTD SVG 20010904//EN"
 "http://www.w3.org/TR/2001/REC-SVG-20010904/DTD/svg10.dtd">
<svg version="1.0" xmlns="http://www.w3.org/2000/svg"
 width="256.000000pt" height="256.000000pt" viewBox="0 0 256.000000 256.000000"
 preserveAspectRatio="xMidYMid meet">
<metadata>
Created by potrace 1.11, written by Peter Selinger 2001-2013
</metadata>
<g transform="translate(0.000000,256.000000) scale(0.100000,-0.100000)"
fill="#000000" stroke="none">
<path d="M1170 2523 c-298 -31 -550 -147 -760 -349 -148 -143 -247 -299 -314
-495 -113 -334 -77 -711 98 -1009 306 -522 910 -751 1486 -564 89 29 267 124
351 188 198 150 358 372 433 601 44 138 58 229 58 385 1 157 -14 257 -59 395
-92 286 -314 551 -584 698 -213 117 -482 174 -709 150z m639 -419 c41 -12 52
-19 49 -32 -2 -9 -71 -330 -153 -713 l-149 -697 -161 -4 c-88 -3 -162 -3 -164
-1 -5 4 127 635 140 670 7 20 2 24 -49 44 -31 11 -79 22 -106 23 l-49 1 -37
-85 c-150 -348 -229 -728 -171 -826 12 -19 21 -38 21 -41 0 -8 -147 6 -195 18
-22 6 -55 27 -76 48 -110 109 -61 367 152 795 l49 98 -37 -7 c-49 -9 -99 -38
-94 -56 16 -64 13 -87 -17 -120 -27 -31 -35 -34 -101 -37 -69 -4 -71 -4 -105
30 -64 64 -58 154 17 235 75 82 190 123 344 123 l92 0 42 63 c167 246 360 421
524 473 56 18 171 17 234 -2z"/>
<path d="M1439 1843 c-63 -67 -199 -274 -199 -302 0 -10 17 -17 65 -25 17 -3
45 -10 63 -15 24 -7 34 -7 37 2 2 7 15 64 28 127 14 63 33 144 41 179 9 35 15
68 13 74 -1 5 -23 -13 -48 -40z"/>
</g>
</svg>
