<?xml version="1.0" standalone="no"?>
<!DOCTYPE svg PUBLIC "-//W3C//DTD SVG 20010904//EN"
 "http://www.w3.org/TR/2001/REC-SVG-20010904/DTD/svg10.dtd">
<svg version="1.0" xmlns="http://www.w3.org/2000/svg"
 width="1920.000000pt" height="1920.000000pt" viewBox="0 0 1920.000000 1920.000000"
 preserveAspectRatio="xMidYMid meet">
<metadata>
Created by potrace 1.11, written by Peter Selinger 2001-2013
</metadata>
<g transform="translate(0.000000,1920.000000) scale(0.100000,-0.100000)"
fill="#000000" stroke="none">
<path d="M13215 18140 c-3 -5 12 -34 35 -64 22 -30 40 -58 40 -61 0 -5 36 -84
81 -179 11 -22 19 -49 19 -60 0 -12 7 -34 16 -51 9 -16 24 -88 34 -160 10 -71
23 -143 29 -158 16 -42 14 -255 -4 -308 -8 -25 -21 -144 -30 -273 -9 -127 -21
-239 -27 -250 -6 -12 -15 -75 -19 -141 -8 -134 -25 -302 -39 -386 -6 -30 -10
-92 -10 -138 0 -45 -5 -92 -12 -104 -11 -21 -23 -140 -34 -352 -3 -49 -11 -96
-17 -103 -6 -8 -14 -66 -17 -130 -3 -65 -9 -123 -13 -130 -10 -14 -27 -208
-34 -382 -2 -67 -9 -120 -16 -129 -7 -8 -15 -75 -20 -165 -19 -370 -24 -433
-35 -466 -7 -21 -12 -95 -12 -182 0 -82 -5 -159 -11 -175 -12 -32 -26 -249
-39 -608 -4 -137 -13 -268 -19 -290 -10 -37 -21 -320 -37 -930 -4 -132 -11
-249 -17 -260 -6 -11 -14 -194 -18 -445 -5 -234 -12 -511 -15 -617 -8 -220 -5
-243 31 -243 14 0 33 4 43 9 38 18 132 59 182 79 14 5 50 21 80 35 30 14 66
29 79 32 14 4 46 20 71 36 26 16 63 35 83 44 20 8 37 20 37 25 0 6 8 10 19 10
10 0 23 6 29 13 6 7 13 115 17 262 3 138 11 324 16 415 6 91 14 284 19 430 6
146 17 384 25 530 8 146 19 361 25 477 5 117 12 223 15 235 3 13 10 100 15
193 17 285 31 470 61 790 6 66 15 165 19 220 13 149 29 310 40 400 5 44 16
148 25 230 27 255 46 379 62 410 8 17 18 80 23 145 13 168 29 318 40 364 5 23
10 82 10 133 0 50 5 104 11 120 11 29 27 204 36 383 2 58 10 111 16 119 7 8
16 77 21 165 18 315 11 415 -35 484 -16 24 -29 54 -29 67 0 13 -4 27 -10 30
-5 3 -10 20 -10 36 0 16 -7 46 -15 66 -8 19 -15 45 -15 57 0 11 -11 43 -24 71
-13 27 -37 77 -52 110 -24 51 -44 85 -109 186 -60 94 -81 120 -192 236 -13 13
-23 27 -23 31 0 6 -22 23 -143 110 -18 13 -46 35 -63 50 -58 50 -180 116 -189
102z"/>
<path d="M9784 17440 c0 -113 2 -159 3 -102 2 56 2 148 0 205 -1 56 -3 10 -3
-103z"/>
<path d="M9745 16870 c-3 -5 -2 -10 4 -10 5 0 12 -17 14 -37 l4 -38 1 42 c2
41 -10 64 -23 43z"/>
<path d="M11374 16348 c-9 -14 -22 -109 -30 -228 -3 -41 -11 -81 -16 -88 -6
-7 -15 -43 -19 -80 -19 -151 -25 -188 -37 -209 -7 -12 -12 -46 -12 -75 0 -30
-5 -59 -11 -65 -12 -12 -26 -104 -36 -228 -2 -38 -10 -76 -16 -84 -6 -7 -15
-45 -20 -85 -17 -142 -24 -192 -35 -221 -13 -36 -24 -98 -56 -301 -13 -83 -27
-157 -31 -164 -5 -7 -12 -50 -17 -94 -19 -171 -24 -202 -36 -223 -7 -12 -12
-44 -12 -70 0 -27 -4 -53 -10 -59 -10 -10 -28 -118 -37 -219 -3 -33 -10 -66
-16 -74 -7 -8 -15 -42 -19 -77 -20 -162 -25 -190 -36 -211 -7 -12 -12 -45 -12
-73 0 -28 -5 -61 -12 -73 -12 -21 -22 -84 -34 -217 -4 -36 -11 -71 -16 -77
-10 -12 -15 -43 -37 -223 -4 -36 -12 -76 -18 -90 -6 -14 -13 -52 -17 -85 -4
-33 -11 -71 -16 -85 -4 -14 -16 -79 -25 -145 -9 -66 -21 -129 -27 -140 -6 -11
-15 -51 -20 -90 -16 -136 -24 -180 -36 -202 -7 -12 -12 -40 -12 -62 0 -22 -5
-52 -11 -68 -12 -30 -27 -126 -36 -233 -2 -36 -10 -71 -16 -78 -6 -8 -14 -48
-19 -90 -13 -135 -24 -196 -36 -219 -7 -12 -12 -50 -12 -85 0 -35 -5 -69 -11
-75 -12 -12 -26 -97 -36 -208 -3 -38 -10 -76 -16 -83 -11 -13 -19 -61 -36
-213 -4 -42 -12 -82 -16 -90 -5 -7 -14 -45 -21 -83 -7 -39 -21 -120 -33 -181
-11 -60 -21 -124 -21 -140 0 -17 -5 -36 -11 -42 -7 -7 -16 -49 -21 -95 -15
-132 -27 -221 -34 -251 -12 -49 36 -75 81 -43 14 9 67 16 170 20 210 8 312 19
327 34 7 7 40 12 85 12 81 0 93 9 93 71 0 17 4 48 9 68 5 20 17 81 26 136 15
91 26 157 56 330 5 33 16 94 24 135 22 119 43 230 54 295 23 138 42 247 60
360 11 66 28 158 36 205 9 47 20 108 25 135 17 101 32 181 40 215 5 19 16 76
25 125 9 50 22 124 30 165 7 41 19 109 25 150 6 41 18 109 26 150 7 41 20 116
29 165 19 112 30 175 44 245 6 30 16 84 22 120 6 36 19 79 28 95 14 27 16 77
14 445 -1 233 -7 457 -14 510 -11 96 -24 618 -37 1605 -4 301 -12 547 -17 555
-5 8 -12 92 -15 185 l-5 170 -32 3 c-18 2 -35 -2 -39 -10z"/>
<path d="M15085 16205 c28 -24 54 -44 58 -45 12 0 427 -417 427 -427 0 -5 43
-53 95 -108 53 -55 112 -120 133 -143 110 -129 132 -156 132 -162 0 -4 18 -27
40 -51 22 -24 40 -48 40 -52 0 -4 20 -29 43 -55 24 -26 58 -67 75 -92 17 -25
47 -62 66 -83 20 -21 36 -44 36 -51 0 -7 10 -23 23 -36 24 -26 30 -36 63 -96
12 -22 31 -48 43 -58 12 -11 21 -23 21 -27 0 -4 24 -42 53 -84 28 -42 60 -91
69 -109 9 -18 23 -38 32 -45 9 -8 16 -19 16 -26 0 -7 7 -15 15 -19 8 -3 15
-12 15 -21 0 -8 16 -38 35 -66 19 -28 35 -57 35 -64 0 -8 6 -20 13 -27 7 -7
16 -20 20 -28 3 -8 20 -37 36 -65 17 -27 40 -68 51 -90 11 -22 29 -53 40 -70
35 -55 86 -150 100 -185 8 -19 31 -68 52 -108 21 -40 38 -79 38 -86 0 -8 6
-21 13 -28 7 -7 19 -32 26 -56 8 -23 20 -47 28 -53 7 -6 13 -19 13 -28 0 -9
12 -34 25 -56 14 -22 25 -47 25 -56 0 -9 7 -22 15 -29 8 -7 15 -21 15 -32 0
-11 11 -43 24 -71 13 -29 26 -61 29 -72 5 -19 44 -118 71 -180 7 -16 20 -50
29 -75 16 -47 35 -101 48 -135 17 -47 39 -125 39 -143 0 -11 7 -25 15 -32 8
-7 15 -27 15 -46 0 -18 5 -36 10 -39 6 -3 10 -21 10 -39 0 -18 7 -41 15 -52 8
-10 15 -31 15 -45 0 -15 7 -40 15 -55 8 -16 15 -41 15 -56 0 -15 5 -30 10 -33
6 -3 10 -25 10 -48 0 -24 6 -51 14 -62 7 -11 16 -38 19 -60 17 -106 27 -149
37 -159 5 -5 10 -25 10 -42 0 -18 5 -45 11 -61 14 -38 28 -111 40 -212 5 -46
14 -91 19 -100 4 -9 16 -75 25 -147 9 -71 21 -143 26 -161 6 -18 14 -90 19
-160 12 -162 27 -352 40 -513 13 -160 13 -703 0 -840 -14 -144 -30 -350 -40
-501 -4 -70 -12 -142 -18 -160 -6 -19 -18 -95 -28 -169 -9 -74 -20 -140 -25
-146 -5 -5 -13 -48 -19 -95 -14 -113 -26 -178 -39 -212 -6 -16 -11 -43 -11
-61 0 -17 -5 -37 -10 -42 -11 -11 -28 -85 -37 -164 -3 -25 -10 -51 -16 -58 -6
-8 -14 -35 -18 -60 -11 -69 -29 -136 -40 -146 -5 -6 -9 -24 -9 -41 0 -17 -7
-40 -15 -51 -8 -10 -15 -33 -15 -51 0 -17 -4 -35 -10 -38 -5 -3 -10 -21 -10
-39 0 -19 -6 -39 -14 -45 -8 -6 -16 -26 -19 -44 -12 -69 -31 -137 -39 -137 -4
0 -8 -8 -8 -19 0 -10 -11 -44 -25 -75 -14 -31 -25 -67 -25 -79 0 -13 -5 -28
-12 -35 -11 -11 -31 -58 -68 -162 -14 -38 -38 -94 -51 -122 -5 -10 -9 -26 -9
-37 0 -10 -7 -24 -15 -31 -8 -7 -15 -21 -15 -31 0 -11 -11 -37 -25 -59 -14
-22 -25 -43 -25 -47 0 -7 -44 -101 -62 -133 -4 -8 -13 -27 -19 -42 -6 -15 -19
-44 -30 -64 -10 -21 -19 -43 -19 -50 0 -6 -6 -17 -13 -23 -8 -6 -20 -30 -27
-53 -13 -38 -24 -60 -68 -133 -11 -18 -30 -52 -124 -213 -15 -26 -31 -54 -34
-62 -4 -8 -18 -32 -31 -52 -13 -21 -23 -44 -23 -52 0 -8 -6 -19 -13 -23 -6 -4
-19 -21 -27 -38 -15 -30 -103 -162 -187 -282 -23 -34 -43 -66 -43 -71 0 -6 -7
-12 -15 -16 -8 -3 -15 -10 -15 -17 0 -6 -10 -25 -22 -42 -13 -17 -27 -39 -33
-49 -17 -28 -90 -131 -113 -158 -12 -14 -62 -77 -112 -140 -49 -63 -96 -122
-102 -130 -7 -8 -26 -32 -42 -55 -16 -22 -36 -47 -45 -56 -9 -9 -34 -40 -56
-68 -22 -28 -43 -51 -47 -51 -5 0 -8 -6 -8 -14 0 -8 -9 -18 -20 -21 -11 -3
-20 -10 -20 -14 0 -5 -12 -21 -27 -38 -117 -125 -164 -173 -172 -173 -5 0 -16
17 -26 37 -33 75 -40 88 -52 96 -7 4 -13 16 -13 26 0 10 -11 35 -25 55 -14 20
-25 42 -25 48 0 6 -11 26 -25 44 -14 18 -25 36 -25 39 0 3 -11 21 -25 39 -14
18 -25 35 -25 38 0 3 -23 39 -50 79 -28 41 -70 103 -95 139 -24 36 -58 84 -74
108 -17 23 -31 45 -31 47 0 3 -20 30 -45 61 -25 30 -45 58 -45 63 0 15 -188
265 -247 329 -32 35 -61 72 -65 82 -4 10 -20 26 -35 34 -15 8 -84 70 -153 138
-89 88 -151 140 -217 181 -81 50 -176 88 -188 75 -2 -2 13 -26 35 -52 22 -27
40 -52 40 -57 0 -4 16 -25 35 -46 20 -21 61 -76 92 -123 32 -47 60 -87 63 -90
3 -3 16 -22 29 -42 12 -21 27 -38 32 -38 5 0 9 -4 9 -10 0 -5 37 -64 83 -129
45 -66 101 -148 124 -183 23 -35 45 -68 50 -73 4 -6 17 -26 27 -45 11 -19 22
-37 25 -40 7 -6 39 -63 60 -107 8 -18 19 -33 23 -33 4 0 8 -8 9 -17 0 -10 9
-31 20 -48 10 -16 22 -37 25 -45 3 -8 13 -31 21 -50 7 -19 18 -43 23 -52 6
-10 10 -23 10 -30 0 -6 6 -19 14 -27 8 -9 20 -39 27 -66 6 -28 17 -64 24 -81
26 -63 38 -181 31 -322 -9 -207 -17 -296 -29 -310 -5 -7 -14 -45 -18 -85 -15
-122 -21 -151 -35 -172 -8 -11 -14 -34 -14 -52 0 -18 -4 -41 -9 -51 -13 -23
-41 -117 -41 -135 0 -8 -6 -20 -14 -26 -8 -6 -17 -25 -20 -41 -3 -17 -9 -43
-12 -60 -3 -16 -12 -35 -20 -41 -8 -6 -14 -22 -14 -35 0 -12 -4 -25 -9 -28
-10 -7 -41 -97 -41 -122 0 -10 -6 -25 -14 -33 -16 -19 -36 -76 -36 -104 0 -11
-6 -25 -14 -31 -8 -6 -21 -36 -29 -66 -16 -58 -42 -135 -63 -185 -7 -16 -18
-50 -24 -75 -7 -25 -18 -58 -25 -75 -7 -16 -21 -57 -31 -90 -10 -33 -22 -64
-26 -70 -4 -5 -8 -23 -8 -40 0 -17 -6 -39 -14 -50 -13 -20 -22 -54 -33 -129
-3 -22 -12 -46 -19 -54 -8 -7 -14 -24 -14 -38 0 -13 -4 -32 -9 -42 -17 -30
-41 -120 -41 -149 0 -16 -5 -34 -10 -39 -13 -13 -40 -117 -40 -156 0 -17 -7
-39 -15 -48 -8 -9 -19 -36 -25 -61 -5 -24 -17 -73 -26 -109 -9 -36 -19 -90
-23 -120 -3 -30 -10 -61 -15 -68 -8 -14 -20 -84 -33 -192 -3 -30 -12 -60 -19
-68 -8 -7 -14 -28 -14 -47 0 -18 -3 -35 -7 -37 -5 -2 -16 -28 -27 -58 -10 -30
-29 -69 -42 -86 -13 -17 -24 -34 -24 -37 0 -10 -123 -127 -133 -127 -4 0 -27
-10 -50 -21 -23 -12 -60 -26 -82 -32 -56 -14 -312 -20 -360 -8 -89 23 -105 24
-105 6 0 -52 211 -330 306 -402 55 -42 105 -73 119 -73 8 0 31 -7 52 -16 21
-9 47 -20 58 -24 54 -20 166 -33 325 -37 189 -4 197 -3 325 57 65 30 132 91
173 155 14 22 28 42 32 45 4 3 15 30 25 60 9 30 21 59 26 65 5 5 9 20 9 33 0
13 5 33 11 44 11 21 24 87 37 190 4 32 13 63 20 70 7 7 12 38 12 69 0 32 5 61
10 64 6 3 10 23 10 43 0 20 7 50 15 66 8 15 15 37 15 48 0 11 7 41 15 67 7 25
19 66 25 91 6 25 16 59 22 75 5 17 14 48 18 70 9 48 45 171 70 240 10 28 24
75 31 105 6 30 16 60 21 67 5 7 16 41 23 77 8 36 20 80 28 98 23 55 39 102 44
131 3 15 9 30 14 33 5 3 9 15 9 28 0 12 7 31 15 42 8 10 15 31 15 46 0 15 5
30 10 33 6 3 10 14 10 23 0 9 7 30 15 46 8 15 15 36 15 46 0 10 7 31 15 46 8
16 15 37 15 46 0 9 5 20 10 23 6 3 10 17 10 30 0 13 4 26 10 30 5 3 13 20 19
38 5 18 24 70 41 117 18 47 43 114 55 149 13 35 27 66 33 70 5 3 12 23 16 44
4 21 16 43 26 50 11 6 20 15 20 18 0 8 179 184 245 242 82 70 500 498 507 519
2 3 23 28 48 55 25 26 68 77 95 112 28 35 66 83 85 106 19 24 62 77 95 119 33
42 63 76 67 76 5 0 8 5 8 11 0 11 79 111 93 117 4 2 7 8 7 13 0 8 58 98 71
109 3 3 41 59 84 125 43 66 82 122 87 123 4 2 8 8 8 13 0 8 75 124 90 139 7 7
29 43 37 60 4 8 9 17 12 20 3 3 16 25 29 50 12 25 35 68 52 95 16 28 35 61 43
75 27 50 80 144 106 189 14 25 35 63 46 84 11 20 23 37 27 37 5 0 8 7 8 15 0
18 32 89 43 93 4 2 7 10 7 18 0 8 11 35 24 62 30 57 106 222 106 227 0 3 16
37 36 77 19 40 54 118 76 173 22 55 44 106 49 115 4 8 15 39 24 68 9 28 21 52
26 52 5 0 9 8 9 19 0 21 32 106 66 174 8 16 14 37 14 47 0 10 4 21 9 24 5 3
11 20 14 38 2 18 9 47 15 63 6 17 23 71 37 120 15 50 32 101 37 115 6 14 14
41 19 60 10 45 25 97 38 135 5 17 22 84 37 150 14 66 33 140 41 165 8 25 18
68 23 95 13 78 30 148 39 160 5 5 11 42 14 80 7 100 27 218 38 229 5 6 9 36 9
67 0 32 5 70 12 86 11 28 19 107 36 369 5 77 14 149 20 160 9 18 24 437 25
694 0 246 -15 666 -25 695 -5 17 -14 91 -19 165 -18 256 -26 335 -37 363 -7
16 -12 54 -12 86 0 31 -4 61 -9 66 -11 11 -31 139 -38 239 -3 38 -10 79 -17
90 -7 12 -19 55 -26 96 -6 41 -18 91 -25 110 -7 19 -27 98 -44 175 -18 77 -37
154 -42 170 -6 17 -14 44 -19 60 -7 27 -18 65 -50 170 -5 17 -16 55 -25 85 -9
30 -19 69 -22 85 -3 17 -12 39 -19 50 -8 11 -14 29 -14 40 0 22 -19 79 -38
112 -7 12 -12 33 -12 47 0 14 -4 26 -9 26 -9 0 -41 77 -41 102 0 8 -6 21 -14
27 -7 6 -19 33 -26 59 -7 26 -17 52 -21 57 -4 6 -21 45 -39 89 -17 43 -45 108
-61 145 -17 36 -38 82 -46 101 -30 69 -65 145 -74 160 -5 8 -12 22 -15 30 -9
22 -54 118 -81 171 -12 26 -23 56 -23 68 0 11 -5 21 -10 21 -6 0 -18 17 -28
38 -9 20 -19 39 -22 42 -3 3 -33 52 -65 110 -33 58 -64 113 -70 122 -5 9 -17
29 -26 45 -8 15 -30 55 -49 88 -18 33 -38 69 -44 80 -6 11 -39 62 -74 113 -34
51 -62 97 -62 101 0 5 -3 11 -7 13 -9 3 -206 295 -212 312 -2 6 -21 32 -42 58
-22 26 -39 49 -39 53 0 4 -6 12 -12 19 -14 14 -39 44 -148 181 -40 50 -80 99
-89 111 -10 11 -36 45 -59 76 -22 31 -71 87 -109 125 -37 38 -106 111 -153
163 -105 116 -410 423 -545 547 -55 50 -131 121 -170 157 -38 36 -74 66 -80
66 -5 0 -28 16 -50 36 -22 19 -53 42 -70 51 -16 9 -32 19 -35 24 -14 21 -85
69 -104 69 -16 0 -11 -9 29 -45z"/>
<path d="M15504 10780 c-27 -9 -206 -98 -294 -147 -21 -12 -39 -31 -44 -49
-12 -41 -15 -47 -25 -64 -5 -8 -23 -44 -41 -80 -17 -36 -40 -78 -50 -95 -10
-16 -19 -38 -19 -47 -1 -9 -7 -21 -14 -25 -7 -4 -22 -22 -33 -40 -47 -77 -136
-202 -173 -243 -22 -25 -41 -48 -41 -52 0 -5 -8 -16 -19 -27 -10 -10 -52 -58
-92 -107 -41 -49 -179 -192 -306 -319 -238 -236 -270 -266 -290 -275 -6 -3
-40 -32 -75 -65 -35 -33 -81 -73 -103 -90 -22 -16 -65 -53 -95 -82 -30 -28
-73 -65 -95 -81 -22 -16 -53 -41 -68 -56 -15 -14 -31 -26 -34 -26 -8 0 -107
-82 -111 -92 -2 -5 -9 -8 -15 -8 -7 0 -32 -18 -56 -40 -24 -22 -45 -40 -47
-40 -2 0 -22 -12 -43 -27 -21 -16 -47 -34 -57 -41 -66 -44 -262 -186 -277
-200 -18 -16 -19 -32 -13 -357 11 -677 25 -1151 35 -1190 6 -22 11 -63 11 -92
0 -79 13 -103 53 -103 18 0 42 7 53 15 28 21 239 21 260 0 9 -8 24 -15 34 -15
10 0 22 -4 25 -10 3 -5 17 -10 29 -10 13 0 29 -6 35 -14 7 -8 26 -21 44 -30
18 -9 40 -22 49 -29 12 -8 21 -8 28 -1 6 6 7 145 0 424 -5 228 -10 510 -10
627 0 249 -20 209 171 340 171 117 168 115 299 218 63 50 129 101 146 115 18
14 56 44 86 67 29 22 67 54 83 70 17 15 80 71 140 123 725 632 1139 1139 1266
1550 31 100 32 112 32 265 0 133 -4 173 -22 235 -43 150 -111 219 -222 226
-35 2 -78 -1 -95 -6z"/>
<path d="M1186 9285 c5 -392 15 -598 32 -660 6 -22 12 -74 12 -115 1 -61 3
-72 13 -60 7 8 26 20 42 25 l30 11 -3 79 c-2 44 -10 89 -17 101 -7 11 -15 52
-18 90 -3 38 -13 110 -22 159 -10 50 -20 149 -24 222 -4 85 -10 137 -18 145
-9 8 -13 49 -14 123 -1 60 -5 139 -9 175 -4 36 -6 -97 -4 -295z"/>
<path d="M2688 9033 c7 -3 16 -2 19 1 4 3 -2 6 -13 5 -11 0 -14 -3 -6 -6z"/>
<path d="M2545 8980 c-3 -6 1 -7 9 -4 18 7 21 14 7 14 -6 0 -13 -4 -16 -10z"/>
<path d="M2196 8865 c-11 -8 -15 -15 -9 -15 6 0 16 7 23 15 16 19 11 19 -14 0z"/>
<path d="M2120 8840 c0 -5 5 -10 11 -10 5 0 7 5 4 10 -3 6 -8 10 -11 10 -2 0
-4 -4 -4 -10z"/>
<path d="M1940 8771 c0 -8 -7 -11 -17 -6 -15 5 -16 4 -5 -6 9 -10 15 -10 24
-1 6 6 9 15 5 19 -4 3 -7 1 -7 -6z"/>
<path d="M1716 8673 c-6 -14 -5 -15 5 -6 7 7 10 15 7 18 -3 3 -9 -2 -12 -12z"/>
<path d="M1340 8515 c-11 -13 -10 -14 4 -9 9 3 16 10 16 15 0 13 -6 11 -20 -6z"/>
<path d="M11667 7765 c-13 -6 -57 -20 -98 -29 -41 -10 -83 -22 -94 -27 -11 -5
-40 -13 -65 -18 -25 -5 -85 -19 -134 -30 -50 -12 -106 -21 -126 -21 -19 0 -45
-6 -56 -14 -11 -8 -53 -17 -94 -19 -191 -13 -292 -25 -303 -36 -7 -7 -54 -11
-127 -11 -63 0 -133 -5 -155 -11 -39 -9 -283 -26 -530 -36 -66 -2 -125 -9
-132 -15 -7 -6 -13 -25 -13 -42 0 -17 -7 -40 -15 -50 -8 -11 -15 -39 -15 -62
0 -24 -4 -46 -10 -49 -5 -3 -10 -23 -10 -43 0 -20 -7 -50 -15 -66 -8 -15 -15
-47 -15 -70 0 -23 -4 -46 -10 -52 -13 -13 -30 -93 -37 -171 -3 -35 -11 -68
-19 -74 -8 -6 -14 -21 -14 -32 0 -30 -31 -181 -40 -192 -4 -5 -11 -30 -15 -55
-4 -25 -13 -65 -20 -90 -8 -25 -19 -72 -25 -105 -6 -33 -16 -73 -22 -90 -10
-31 -23 -90 -34 -160 -4 -22 -13 -52 -20 -67 -8 -15 -14 -44 -14 -66 0 -21 -5
-43 -12 -50 -11 -11 -20 -51 -35 -157 -3 -22 -12 -49 -19 -60 -8 -11 -14 -34
-14 -52 0 -18 -4 -41 -9 -51 -13 -26 -32 -102 -38 -152 -3 -25 -9 -47 -13 -50
-10 -6 -40 -124 -40 -156 0 -14 -6 -35 -14 -47 -7 -12 -19 -51 -26 -87 -7 -36
-21 -94 -32 -130 -19 -67 -38 -133 -57 -206 -6 -23 -11 -52 -11 -66 0 -13 -5
-29 -12 -36 -6 -6 -15 -30 -19 -54 -15 -83 -26 -123 -37 -145 -7 -12 -12 -37
-12 -55 0 -19 -4 -38 -9 -43 -9 -10 -28 -81 -38 -142 -3 -18 -11 -38 -19 -44
-8 -6 -14 -26 -14 -45 0 -18 -4 -36 -10 -39 -5 -3 -10 -18 -10 -33 0 -15 -6
-36 -14 -47 -7 -11 -16 -33 -19 -50 -7 -40 -45 -154 -61 -185 -8 -14 -19 -43
-26 -65 -7 -22 -16 -44 -20 -50 -4 -5 -24 -53 -45 -105 -43 -110 -82 -199 -95
-220 -9 -14 -52 -102 -71 -145 -5 -11 -13 -27 -18 -35 -5 -8 -17 -31 -25 -50
-9 -19 -21 -43 -26 -52 -6 -10 -14 -26 -20 -35 -5 -10 -17 -34 -27 -53 -9 -19
-20 -37 -23 -40 -14 -12 -40 -61 -40 -75 0 -8 -4 -15 -10 -15 -5 0 -19 -17
-30 -38 -11 -20 -29 -50 -40 -67 -11 -16 -29 -48 -41 -69 -12 -22 -34 -53 -50
-70 -16 -17 -29 -37 -29 -43 0 -7 -4 -13 -10 -13 -5 0 -10 -4 -10 -8 0 -5 -18
-28 -40 -52 -22 -24 -40 -47 -40 -52 0 -4 -8 -16 -17 -26 -33 -34 -83 -96 -83
-102 0 -3 -28 -35 -62 -72 -120 -125 -188 -200 -188 -206 0 -4 -20 -21 -43
-39 -23 -17 -62 -51 -87 -73 -25 -23 -67 -59 -95 -80 -27 -21 -70 -56 -94 -78
-24 -22 -56 -46 -70 -54 -14 -7 -28 -16 -31 -19 -8 -9 -207 -132 -257 -159
-26 -14 -53 -31 -61 -37 -7 -7 -18 -13 -23 -13 -13 0 -138 -60 -143 -69 -3 -4
-23 -14 -46 -21 -22 -7 -45 -19 -51 -27 -6 -7 -22 -13 -35 -13 -14 0 -32 -4
-42 -9 -54 -26 -90 -40 -117 -44 -16 -3 -55 -14 -85 -26 -30 -11 -65 -21 -77
-21 -12 0 -28 -7 -37 -15 -9 -10 -34 -15 -70 -15 -30 0 -58 -4 -61 -10 -3 -5
-29 -10 -57 -10 -27 0 -64 -6 -81 -14 -18 -8 -70 -17 -117 -20 -47 -3 -130
-10 -185 -16 -130 -12 -389 -12 -485 1 -41 6 -113 13 -160 16 -47 2 -90 9 -97
15 -11 9 -92 21 -223 35 -30 3 -58 10 -62 16 -3 5 -32 12 -65 14 -32 2 -67 8
-78 12 -55 22 -93 34 -120 38 -16 3 -35 9 -41 14 -15 12 -104 39 -130 39 -12
0 -27 6 -33 14 -6 8 -24 16 -39 19 -75 15 -109 24 -127 34 -20 11 -155 64
-275 109 -35 14 -69 29 -74 34 -6 6 -18 10 -27 10 -10 0 -32 8 -51 17 -61 31
-68 33 -87 33 -10 0 -24 7 -31 15 -7 8 -20 15 -29 16 -9 0 -29 9 -46 20 -16
10 -36 21 -42 24 -7 3 -19 7 -25 10 -7 3 -26 14 -43 24 -16 11 -40 20 -52 20
-13 1 -23 5 -23 11 0 5 -35 27 -78 48 -176 89 -314 170 -387 227 -10 8 -23 15
-28 15 -4 0 -23 11 -41 25 -18 14 -38 25 -44 25 -7 0 -12 3 -12 8 0 4 -17 16
-37 27 -21 11 -51 30 -66 42 -16 13 -32 23 -37 23 -5 0 -24 15 -42 33 -33 32
-93 77 -103 77 -3 0 -5 -4 -5 -10 0 -5 7 -10 15 -10 8 0 15 -4 15 -10 0 -5 7
-10 15 -10 8 0 12 -6 9 -14 -3 -7 2 -16 10 -19 9 -4 16 -13 16 -21 0 -7 9 -16
21 -19 11 -3 23 -15 26 -26 3 -12 10 -21 17 -21 6 0 63 -50 126 -111 63 -60
135 -124 160 -141 25 -18 47 -35 50 -38 5 -7 100 -79 151 -115 36 -26 142
-108 149 -116 3 -3 23 -16 45 -29 22 -13 72 -44 110 -68 39 -25 86 -55 105
-67 19 -12 60 -38 90 -57 82 -53 126 -76 387 -207 131 -66 274 -134 318 -151
44 -17 88 -35 97 -40 10 -6 22 -10 28 -10 5 0 33 -11 62 -24 29 -13 73 -31 98
-41 47 -18 58 -22 125 -48 22 -8 101 -34 175 -57 74 -23 189 -59 255 -80 66
-21 161 -46 210 -55 50 -9 117 -22 150 -30 33 -7 101 -18 150 -25 50 -6 117
-16 150 -22 36 -7 189 -12 385 -12 276 -1 342 2 435 18 61 10 133 22 160 26
125 19 239 50 505 137 62 20 275 118 393 180 15 8 38 20 50 26 12 7 42 26 67
43 102 71 146 84 219 65 98 -26 181 -43 306 -60 75 -11 142 -24 148 -29 7 -6
41 -12 77 -15 136 -10 286 -28 308 -37 13 -6 69 -10 125 -10 56 -1 122 -5 147
-11 50 -10 518 -32 710 -32 193 0 670 21 720 32 25 6 91 10 147 11 56 0 112 4
125 10 22 9 172 27 308 37 36 3 70 9 76 14 7 5 72 18 145 29 74 11 166 27 204
36 39 9 120 27 180 41 61 13 130 31 155 39 25 8 54 14 64 14 20 0 42 6 132 34
29 9 60 16 71 16 10 0 23 4 28 9 10 10 69 27 130 38 17 3 39 12 50 19 11 8 30
14 42 14 13 0 31 4 41 9 9 5 35 14 57 20 50 14 73 28 60 39 -19 13 -103 200
-112 245 -3 18 -12 42 -19 54 -8 12 -19 46 -25 75 -6 29 -19 80 -29 113 -11
33 -27 87 -35 120 -9 33 -21 70 -26 83 -5 13 -9 38 -9 57 0 18 -7 41 -16 49
-8 9 -17 27 -18 41 -1 14 -6 28 -11 33 -4 4 -5 2 -2 -5 8 -13 -42 -33 -84 -33
-15 0 -31 -4 -34 -10 -3 -5 -19 -10 -34 -10 -15 0 -36 -7 -47 -15 -10 -8 -33
-15 -51 -15 -17 0 -35 -4 -38 -10 -3 -5 -19 -10 -34 -10 -15 0 -36 -7 -47 -15
-10 -8 -35 -15 -55 -15 -20 0 -42 -6 -48 -14 -6 -7 -28 -16 -49 -20 -110 -18
-146 -26 -156 -36 -5 -5 -21 -10 -35 -10 -33 0 -160 -28 -183 -41 -10 -5 -29
-9 -44 -9 -14 0 -40 -6 -57 -14 -18 -8 -52 -17 -77 -19 -138 -16 -226 -30
-235 -37 -5 -4 -35 -11 -65 -14 -59 -7 -125 -18 -259 -41 -46 -8 -120 -15
-165 -15 -45 0 -105 -6 -132 -14 -27 -8 -128 -18 -224 -22 -335 -15 -1189 -8
-1317 12 -41 6 -43 28 -8 66 14 15 25 32 25 38 0 5 4 10 8 10 5 0 30 32 57 70
27 39 52 70 55 70 4 0 10 8 14 18 3 9 24 46 46 81 22 34 40 67 40 71 0 4 6 13
14 19 8 7 22 26 31 44 9 18 29 52 45 77 16 25 32 52 36 60 3 8 10 22 15 30 5
8 12 22 15 30 11 27 34 75 44 90 6 8 17 31 25 50 9 19 20 42 25 50 17 27 100
202 100 212 0 5 12 35 26 66 14 31 32 73 40 92 8 19 19 43 24 52 6 10 10 25
10 34 0 9 6 28 14 42 13 27 19 41 49 117 9 22 19 69 23 105 3 36 11 76 16 90
11 27 50 153 74 235 17 57 83 309 114 435 11 47 27 108 35 135 7 28 18 68 24
90 6 22 17 65 25 95 25 92 59 223 66 260 5 19 22 89 40 155 18 66 36 136 40
155 14 58 111 452 125 505 7 28 25 104 40 170 14 66 33 142 41 169 8 26 14 55
14 64 0 9 4 29 9 46 6 17 17 60 25 96 8 36 27 115 41 175 14 61 32 139 40 175
8 36 26 112 39 170 14 58 34 149 46 202 13 54 27 101 34 106 6 5 169 19 361
31 438 28 944 84 1013 112 22 9 23 13 17 62 -3 28 -10 149 -15 267 -9 213 -21
347 -33 367 -11 18 -44 22 -70 8z"/>
<path d="M5355 7470 c-33 -4 -168 -9 -300 -10 -132 -1 -265 -6 -295 -11 -30
-6 -163 -14 -295 -18 -132 -4 -246 -10 -252 -14 -11 -7 -89 -13 -450 -36 -78
-5 -150 -14 -161 -20 -12 -6 -43 -11 -71 -11 -54 0 -213 -15 -326 -31 -38 -5
-124 -16 -190 -24 -66 -7 -163 -21 -215 -30 -52 -9 -125 -19 -161 -23 -37 -4
-73 -13 -80 -19 -8 -6 -48 -13 -89 -17 -128 -10 -204 -21 -227 -34 -12 -7 -40
-12 -62 -12 -22 0 -52 -5 -68 -11 -27 -11 -86 -22 -188 -37 -27 -4 -57 -12
-65 -17 -8 -5 -40 -13 -70 -18 -30 -4 -73 -10 -95 -14 -22 -3 -49 -12 -60 -19
-11 -8 -34 -14 -52 -14 -18 0 -47 -6 -65 -14 -18 -8 -53 -19 -78 -26 -25 -7
-63 -21 -86 -31 -23 -10 -49 -19 -58 -19 -9 0 -34 -11 -56 -25 -22 -14 -46
-25 -54 -25 -7 0 -19 -7 -26 -15 -7 -8 -17 -15 -23 -15 -17 0 -188 -130 -228
-173 -48 -53 -81 -103 -99 -147 -7 -19 -19 -42 -27 -51 -7 -9 -13 -39 -13 -72
0 -31 -5 -59 -10 -62 -13 -8 -13 -72 0 -80 6 -3 10 -35 10 -69 0 -42 5 -67 14
-75 8 -6 16 -24 19 -39 13 -65 26 -101 61 -159 20 -34 36 -66 36 -71 0 -5 7
-15 16 -22 8 -8 21 -28 29 -47 8 -18 21 -36 30 -39 8 -3 15 -14 15 -23 0 -9
11 -28 25 -43 14 -15 25 -31 25 -36 0 -5 24 -35 53 -68 29 -32 66 -77 82 -99
16 -22 71 -82 122 -134 51 -52 93 -98 93 -102 0 -4 6 -12 14 -16 8 -4 54 -45
103 -90 98 -91 112 -103 173 -153 23 -19 50 -43 58 -52 9 -10 21 -18 27 -18 7
0 22 -11 35 -25 24 -25 40 -32 40 -17 0 5 -9 18 -20 30 -11 12 -20 26 -20 31
0 5 -6 16 -13 23 -19 21 -122 151 -140 178 -9 14 -33 48 -52 75 -20 28 -40 59
-46 70 -5 11 -18 34 -29 50 -11 17 -28 49 -40 72 -11 23 -24 45 -30 48 -5 3
-10 17 -10 31 0 13 -4 32 -9 42 -22 45 -35 92 -38 147 -2 33 -9 70 -15 83 -9
18 -9 28 0 42 7 11 12 45 12 75 0 43 7 70 32 118 18 34 36 64 40 65 4 2 8 9 8
16 0 41 232 236 281 236 28 0 44 -25 89 -140 21 -52 82 -185 136 -293 13 -27
24 -57 24 -68 0 -10 4 -19 8 -19 7 0 16 -18 46 -90 3 -8 10 -22 15 -30 27 -45
61 -120 61 -133 0 -8 4 -17 8 -19 4 -1 19 -23 33 -48 14 -25 35 -61 46 -80 11
-19 35 -62 53 -95 18 -33 42 -73 52 -90 10 -16 21 -37 25 -45 3 -8 17 -32 30
-52 13 -21 23 -44 23 -52 0 -8 7 -16 15 -20 8 -3 15 -15 15 -26 0 -11 4 -20 8
-20 5 0 17 -17 28 -37 10 -21 22 -40 25 -43 3 -3 18 -23 32 -45 15 -22 58 -85
97 -140 39 -55 73 -107 77 -115 4 -8 17 -26 30 -40 13 -14 23 -28 23 -32 0 -4
29 -48 65 -99 36 -51 68 -102 71 -113 3 -15 26 -29 73 -48 37 -16 75 -28 83
-28 9 0 19 -4 23 -9 6 -11 104 -41 133 -41 11 0 25 -7 32 -15 7 -8 21 -15 31
-15 10 0 78 -20 151 -44 73 -24 156 -49 183 -55 28 -7 67 -17 88 -23 75 -22
59 12 -73 147 -115 118 -138 142 -207 221 -28 32 -87 96 -130 141 -93 96 -123
131 -123 140 0 3 -19 27 -42 53 -24 26 -79 93 -123 150 -44 56 -88 112 -97
123 -10 11 -18 23 -18 26 0 3 -15 22 -33 42 -18 19 -60 76 -92 125 -33 49 -62
91 -65 94 -3 3 -34 49 -69 103 -35 53 -68 97 -73 97 -4 0 -8 6 -8 13 0 8 -23
46 -50 85 -27 39 -50 76 -50 81 0 6 -6 14 -12 18 -7 4 -21 24 -31 43 -9 19
-27 51 -39 70 -11 19 -32 55 -45 80 -27 52 -40 75 -64 110 -9 14 -33 58 -53
98 -21 39 -42 72 -47 72 -5 0 -9 6 -9 14 0 7 -11 30 -25 50 -14 20 -25 44 -25
52 0 8 -7 26 -16 39 -19 29 -12 55 14 55 10 0 27 7 38 15 10 8 33 15 49 15 35
1 114 21 135 35 8 5 40 13 70 17 30 4 87 15 125 23 39 9 98 20 132 24 35 5 68
13 75 18 7 6 36 13 63 17 119 14 173 24 193 35 11 6 42 11 69 11 26 0 64 5 83
10 41 11 129 26 250 41 47 6 89 14 95 18 5 5 57 11 114 15 70 5 116 13 140 26
63 31 771 104 1316 135 149 8 304 17 345 20 234 16 1056 35 1734 40 429 3 783
8 788 11 4 3 8 14 8 24 0 10 5 20 11 22 10 3 27 56 36 118 3 19 11 44 18 55 7
11 18 43 25 70 6 28 18 66 25 85 8 19 21 61 31 94 30 101 177 91 -1317 92
-723 1 -1341 -2 -1374 -6z"/>
<path d="M5756 4008 c3 -4 11 -5 19 -1 21 7 19 12 -4 10 -11 0 -18 -5 -15 -9z"/>
<path d="M5620 3970 c0 -6 7 -10 15 -10 8 0 15 2 15 4 0 2 -7 6 -15 10 -8 3
-15 1 -15 -4z"/>
<path d="M4225 3940 c-3 -5 -2 -10 4 -10 5 0 13 5 16 10 3 6 2 10 -4 10 -5 0
-13 -4 -16 -10z"/>
<path d="M5397 3919 c7 -7 15 -10 18 -7 3 3 -2 9 -12 12 -14 6 -15 5 -6 -5z"/>
<path d="M5195 3890 c3 -5 11 -10 16 -10 6 0 7 5 4 10 -3 6 -11 10 -16 10 -6
0 -7 -4 -4 -10z"/>
<path d="M11998 3819 c-7 -19 2 -178 11 -183 3 -2 5 28 3 67 -4 117 -6 134
-14 116z"/>
<path d="M12001 3604 c0 -11 3 -14 6 -6 3 7 2 16 -1 19 -3 4 -6 -2 -5 -13z"/>
<path d="M12051 3104 c0 -11 3 -14 6 -6 3 7 2 16 -1 19 -3 4 -6 -2 -5 -13z"/>
<path d="M12085 2860 c-3 -5 -1 -10 4 -10 6 0 11 5 11 10 0 6 -2 10 -4 10 -3
0 -8 -4 -11 -10z"/>
<path d="M12102 2710 c0 -14 2 -19 5 -12 2 6 2 18 0 25 -3 6 -5 1 -5 -13z"/>
<path d="M12115 2660 c-3 -5 -1 -10 4 -10 6 0 11 5 11 10 0 6 -2 10 -4 10 -3
0 -8 -4 -11 -10z"/>
<path d="M12127 2606 c-4 -10 -5 -21 -2 -24 9 -9 17 6 13 25 -3 17 -4 17 -11
-1z"/>
<path d="M12145 2420 c-3 -5 -1 -10 4 -10 6 0 11 5 11 10 0 6 -2 10 -4 10 -3
0 -8 -4 -11 -10z"/>
<path d="M12169 2348 c7 -10 11 -25 7 -33 -3 -8 -1 -15 4 -15 17 0 11 37 -7
51 -16 13 -17 12 -4 -3z"/>
<path d="M2350 2340 c0 -5 5 -10 11 -10 5 0 7 5 4 10 -3 6 -8 10 -11 10 -2 0
-4 -4 -4 -10z"/>
</g>
</svg>
